<svg width="60" height="72" viewBox="0 0 60 72" fill="none" xmlns="http://www.w3.org/2000/svg">
<path d="M32.8222 71.4769H29.878C13.6436 71.4769 0.435974 58.2692 0.435974 42.0349V30.2582C0.435974 14.0238 13.6436 0.816162 29.878 0.816162H32.8222C44.0808 0.816162 54.1881 7.0815 59.2021 17.1682L53.9291 19.7917C49.9189 11.7187 41.8315 6.70481 32.8222 6.70481H29.878C16.8912 6.70481 6.32432 17.2714 6.32432 30.2582V42.0349C6.32432 55.0217 16.8912 65.5886 29.878 65.5886H32.8222C41.6722 65.5886 49.6923 60.7012 53.7582 52.8312L58.9902 55.5342C53.9054 65.3677 43.8806 71.4769 32.8191 71.4769H32.8222Z" fill="white"/>
<path d="M59.5144 30.4168V48.3772H56.3817V32.3477L44.0386 39.9537C42.0194 41.2082 39.4165 41.2082 37.3972 39.9537L21.9214 30.4168L37.3972 20.8781C39.418 19.6282 42.0178 19.6282 44.0386 20.8781L59.5144 30.4168ZM40.7184 43.8872C38.9384 43.8872 37.1986 43.395 35.7057 42.4695L28.1871 37.8402V48.9969L28.6457 49.4355C28.7932 49.5747 32.3334 52.8676 40.7184 52.8676C49.1024 52.8676 52.6426 49.5747 52.7898 49.4355L53.2491 48.9969V37.8402L45.7302 42.4695C44.2373 43.395 42.4962 43.8872 40.7184 43.8872Z" fill="#077D55"/>
</svg>
