<svg width="294" height="35" viewBox="0 0 294 35" fill="none" xmlns="http://www.w3.org/2000/svg">
<path d="M20.232 0.639997V5.104H6.072V14.944H17.112V19.408H6.072V34H0.6V0.639997H20.232ZM45.4151 27.184H31.4471L29.0471 34H23.3351L35.2871 0.591998H41.6231L53.5751 34H47.8151L45.4151 27.184ZM43.8791 22.72L38.4551 7.216L32.9831 22.72H43.8791ZM64.1959 0.639997V21.904C64.1959 24.432 64.8519 26.336 66.1639 27.616C67.5079 28.896 69.3639 29.536 71.7319 29.536C74.1319 29.536 75.9879 28.896 77.2999 27.616C78.6439 26.336 79.3159 24.432 79.3159 21.904V0.639997H84.7879V21.808C84.7879 24.528 84.1959 26.832 83.0119 28.72C81.8279 30.608 80.2439 32.016 78.2599 32.944C76.2759 33.872 74.0839 34.336 71.6839 34.336C69.2839 34.336 67.0919 33.872 65.1079 32.944C63.1559 32.016 61.6039 30.608 60.4519 28.72C59.2999 26.832 58.7239 24.528 58.7239 21.808V0.639997H64.1959ZM90.0885 17.248C90.0885 13.984 90.8405 11.056 92.3445 8.464C93.8805 5.872 95.9445 3.856 98.5365 2.416C101.161 0.943997 104.025 0.207997 107.129 0.207997C110.681 0.207997 113.833 1.088 116.585 2.848C119.369 4.576 121.385 7.04 122.633 10.24H116.057C115.193 8.48 113.993 7.168 112.457 6.304C110.921 5.44 109.145 5.008 107.129 5.008C104.921 5.008 102.953 5.504 101.225 6.496C99.4965 7.488 98.1365 8.912 97.1445 10.768C96.1845 12.624 95.7045 14.784 95.7045 17.248C95.7045 19.712 96.1845 21.872 97.1445 23.728C98.1365 25.584 99.4965 27.024 101.225 28.048C102.953 29.04 104.921 29.536 107.129 29.536C109.145 29.536 110.921 29.104 112.457 28.24C113.993 27.376 115.193 26.064 116.057 24.304H122.633C121.385 27.504 119.369 29.968 116.585 31.696C113.833 33.424 110.681 34.288 107.129 34.288C103.993 34.288 101.129 33.568 98.5365 32.128C95.9445 30.656 93.8805 28.624 92.3445 26.032C90.8405 23.44 90.0885 20.512 90.0885 17.248ZM140.51 34.432C138.014 34.432 135.758 33.872 133.742 32.752C131.726 31.6 130.142 30 128.99 27.952C127.838 25.872 127.262 23.472 127.262 20.752C127.262 18.064 127.854 15.68 129.038 13.6C130.222 11.52 131.838 9.92 133.886 8.8C135.934 7.68 138.222 7.12 140.75 7.12C143.278 7.12 145.566 7.68 147.614 8.8C149.662 9.92 151.278 11.52 152.462 13.6C153.646 15.68 154.238 18.064 154.238 20.752C154.238 23.44 153.63 25.824 152.414 27.904C151.198 29.984 149.534 31.6 147.422 32.752C145.342 33.872 143.038 34.432 140.51 34.432ZM140.51 29.68C141.918 29.68 143.23 29.344 144.446 28.672C145.694 28 146.702 26.992 147.47 25.648C148.238 24.304 148.622 22.672 148.622 20.752C148.622 18.832 148.254 17.216 147.518 15.904C146.782 14.56 145.806 13.552 144.59 12.88C143.374 12.208 142.062 11.872 140.654 11.872C139.246 11.872 137.934 12.208 136.718 12.88C135.534 13.552 134.59 14.56 133.886 15.904C133.182 17.216 132.83 18.832 132.83 20.752C132.83 23.6 133.55 25.808 134.99 27.376C136.462 28.912 138.302 29.68 140.51 29.68ZM172.991 7.12C175.071 7.12 176.927 7.552 178.559 8.416C180.223 9.28 181.519 10.56 182.447 12.256C183.375 13.952 183.839 16 183.839 18.4V34H178.415V19.216C178.415 16.848 177.823 15.04 176.639 13.792C175.455 12.512 173.839 11.872 171.791 11.872C169.743 11.872 168.111 12.512 166.895 13.792C165.711 15.04 165.119 16.848 165.119 19.216V34H159.647V7.552H165.119V10.576C166.015 9.488 167.151 8.64 168.527 8.032C169.935 7.424 171.423 7.12 172.991 7.12ZM204.163 7.12C206.243 7.12 208.099 7.552 209.731 8.416C211.395 9.28 212.691 10.56 213.619 12.256C214.547 13.952 215.011 16 215.011 18.4V34H209.587V19.216C209.587 16.848 208.995 15.04 207.811 13.792C206.627 12.512 205.011 11.872 202.963 11.872C200.915 11.872 199.283 12.512 198.067 13.792C196.883 15.04 196.291 16.848 196.291 19.216V34H190.819V7.552H196.291V10.576C197.187 9.488 198.323 8.64 199.699 8.032C201.107 7.424 202.595 7.12 204.163 7.12ZM246.231 20.128C246.231 21.12 246.167 22.016 246.039 22.816H225.831C225.991 24.928 226.775 26.624 228.183 27.904C229.591 29.184 231.319 29.824 233.367 29.824C236.311 29.824 238.391 28.592 239.607 26.128H245.511C244.711 28.56 243.255 30.56 241.143 32.128C239.063 33.664 236.471 34.432 233.367 34.432C230.839 34.432 228.567 33.872 226.551 32.752C224.567 31.6 222.999 30 221.847 27.952C220.727 25.872 220.167 23.472 220.167 20.752C220.167 18.032 220.711 15.648 221.799 13.6C222.919 11.52 224.471 9.92 226.455 8.8C228.471 7.68 230.775 7.12 233.367 7.12C235.863 7.12 238.087 7.664 240.039 8.752C241.991 9.84 243.511 11.376 244.599 13.36C245.687 15.312 246.231 17.568 246.231 20.128ZM240.519 18.4C240.487 16.384 239.767 14.768 238.359 13.552C236.951 12.336 235.207 11.728 233.127 11.728C231.239 11.728 229.623 12.336 228.279 13.552C226.935 14.736 226.135 16.352 225.879 18.4H240.519ZM249.792 20.752C249.792 18.032 250.336 15.648 251.424 13.6C252.544 11.52 254.08 9.92 256.032 8.8C257.984 7.68 260.224 7.12 262.752 7.12C265.952 7.12 268.592 7.888 270.672 9.424C272.784 10.928 274.208 13.088 274.944 15.904H269.04C268.56 14.592 267.792 13.568 266.736 12.832C265.68 12.096 264.352 11.728 262.752 11.728C260.512 11.728 258.72 12.528 257.376 14.128C256.064 15.696 255.408 17.904 255.408 20.752C255.408 23.6 256.064 25.824 257.376 27.424C258.72 29.024 260.512 29.824 262.752 29.824C265.92 29.824 268.016 28.432 269.04 25.648H274.944C274.176 28.336 272.736 30.48 270.624 32.08C268.512 33.648 265.888 34.432 262.752 34.432C260.224 34.432 257.984 33.872 256.032 32.752C254.08 31.6 252.544 30 251.424 27.952C250.336 25.872 249.792 23.472 249.792 20.752ZM286.781 12.016V26.656C286.781 27.648 287.005 28.368 287.453 28.816C287.933 29.232 288.733 29.44 289.853 29.44H293.213V34H288.893C286.429 34 284.541 33.424 283.229 32.272C281.917 31.12 281.261 29.248 281.261 26.656V12.016H278.141V7.552H281.261V0.975999H286.781V7.552H293.213V12.016H286.781Z" fill="white"/>
</svg>
