<svg width="425" height="100" viewBox="0 0 425 100" fill="none" xmlns="http://www.w3.org/2000/svg">
<path d="M46.8222 83.4769H43.878C27.6436 83.4769 14.436 70.2692 14.436 54.0349V42.2582C14.436 26.0238 27.6436 12.8162 43.878 12.8162H46.8222C58.0808 12.8162 68.1881 19.0815 73.2021 29.1682L67.9291 31.7917C63.9189 23.7187 55.8315 18.7048 46.8222 18.7048H43.878C30.8912 18.7048 20.3243 29.2714 20.3243 42.2582V54.0349C20.3243 67.0217 30.8912 77.5886 43.878 77.5886H46.8222C55.6722 77.5886 63.6923 72.7012 67.7582 64.8312L72.9902 67.5342C67.9054 77.3677 57.8806 83.4769 46.8191 83.4769H46.8222Z" fill="white"/>
<path d="M73.5144 42.4168V60.3772H70.3817V44.3477L58.0386 51.9537C56.0194 53.2082 53.4165 53.2082 51.3972 51.9537L35.9214 42.4168L51.3972 32.8781C53.418 31.6282 56.0178 31.6282 58.0386 32.8781L73.5144 42.4168ZM54.7184 55.8872C52.9384 55.8872 51.1986 55.395 49.7057 54.4695L42.1871 49.8402V60.9969L42.6457 61.4355C42.7932 61.5747 46.3334 64.8676 54.7184 64.8676C63.1024 64.8676 66.6426 61.5747 66.7898 61.4355L67.2491 60.9969V49.8402L59.7302 54.4695C58.2373 55.395 56.4962 55.8872 54.7184 55.8872Z" fill="#077D55"/>
<path d="M151.232 32.64V37.104H137.072V46.944H148.112V51.408H137.072V66H131.6V32.64H151.232ZM176.415 59.184H162.447L160.047 66H154.335L166.287 32.592H172.623L184.575 66H178.815L176.415 59.184ZM174.879 54.72L169.455 39.216L163.983 54.72H174.879ZM195.196 32.64V53.904C195.196 56.432 195.852 58.336 197.164 59.616C198.508 60.896 200.364 61.536 202.732 61.536C205.132 61.536 206.988 60.896 208.3 59.616C209.644 58.336 210.316 56.432 210.316 53.904V32.64H215.788V53.808C215.788 56.528 215.196 58.832 214.012 60.72C212.828 62.608 211.244 64.016 209.26 64.944C207.276 65.872 205.084 66.336 202.684 66.336C200.284 66.336 198.092 65.872 196.108 64.944C194.156 64.016 192.604 62.608 191.452 60.72C190.3 58.832 189.724 56.528 189.724 53.808V32.64H195.196ZM221.089 49.248C221.089 45.984 221.841 43.056 223.345 40.464C224.881 37.872 226.945 35.856 229.537 34.416C232.161 32.944 235.025 32.208 238.129 32.208C241.681 32.208 244.833 33.088 247.585 34.848C250.369 36.576 252.385 39.04 253.633 42.24H247.057C246.193 40.48 244.993 39.168 243.457 38.304C241.921 37.44 240.145 37.008 238.129 37.008C235.921 37.008 233.953 37.504 232.225 38.496C230.497 39.488 229.137 40.912 228.145 42.768C227.185 44.624 226.705 46.784 226.705 49.248C226.705 51.712 227.185 53.872 228.145 55.728C229.137 57.584 230.497 59.024 232.225 60.048C233.953 61.04 235.921 61.536 238.129 61.536C240.145 61.536 241.921 61.104 243.457 60.24C244.993 59.376 246.193 58.064 247.057 56.304H253.633C252.385 59.504 250.369 61.968 247.585 63.696C244.833 65.424 241.681 66.288 238.129 66.288C234.993 66.288 232.129 65.568 229.537 64.128C226.945 62.656 224.881 60.624 223.345 58.032C221.841 55.44 221.089 52.512 221.089 49.248ZM271.51 66.432C269.014 66.432 266.758 65.872 264.742 64.752C262.726 63.6 261.142 62 259.99 59.952C258.838 57.872 258.262 55.472 258.262 52.752C258.262 50.064 258.854 47.68 260.038 45.6C261.222 43.52 262.838 41.92 264.886 40.8C266.934 39.68 269.222 39.12 271.75 39.12C274.278 39.12 276.566 39.68 278.614 40.8C280.662 41.92 282.278 43.52 283.462 45.6C284.646 47.68 285.238 50.064 285.238 52.752C285.238 55.44 284.63 57.824 283.414 59.904C282.198 61.984 280.534 63.6 278.422 64.752C276.342 65.872 274.038 66.432 271.51 66.432ZM271.51 61.68C272.918 61.68 274.23 61.344 275.446 60.672C276.694 60 277.702 58.992 278.47 57.648C279.238 56.304 279.622 54.672 279.622 52.752C279.622 50.832 279.254 49.216 278.518 47.904C277.782 46.56 276.806 45.552 275.59 44.88C274.374 44.208 273.062 43.872 271.654 43.872C270.246 43.872 268.934 44.208 267.718 44.88C266.534 45.552 265.59 46.56 264.886 47.904C264.182 49.216 263.83 50.832 263.83 52.752C263.83 55.6 264.55 57.808 265.99 59.376C267.462 60.912 269.302 61.68 271.51 61.68ZM303.991 39.12C306.071 39.12 307.927 39.552 309.559 40.416C311.223 41.28 312.519 42.56 313.447 44.256C314.375 45.952 314.839 48 314.839 50.4V66H309.415V51.216C309.415 48.848 308.823 47.04 307.639 45.792C306.455 44.512 304.839 43.872 302.791 43.872C300.743 43.872 299.111 44.512 297.895 45.792C296.711 47.04 296.119 48.848 296.119 51.216V66H290.647V39.552H296.119V42.576C297.015 41.488 298.151 40.64 299.527 40.032C300.935 39.424 302.423 39.12 303.991 39.12ZM335.163 39.12C337.243 39.12 339.099 39.552 340.731 40.416C342.395 41.28 343.691 42.56 344.619 44.256C345.547 45.952 346.011 48 346.011 50.4V66H340.587V51.216C340.587 48.848 339.995 47.04 338.811 45.792C337.627 44.512 336.011 43.872 333.963 43.872C331.915 43.872 330.283 44.512 329.067 45.792C327.883 47.04 327.291 48.848 327.291 51.216V66H321.819V39.552H327.291V42.576C328.187 41.488 329.323 40.64 330.699 40.032C332.107 39.424 333.595 39.12 335.163 39.12ZM377.231 52.128C377.231 53.12 377.167 54.016 377.039 54.816H356.831C356.991 56.928 357.775 58.624 359.183 59.904C360.591 61.184 362.319 61.824 364.367 61.824C367.311 61.824 369.391 60.592 370.607 58.128H376.511C375.711 60.56 374.255 62.56 372.143 64.128C370.063 65.664 367.471 66.432 364.367 66.432C361.839 66.432 359.567 65.872 357.551 64.752C355.567 63.6 353.999 62 352.847 59.952C351.727 57.872 351.167 55.472 351.167 52.752C351.167 50.032 351.711 47.648 352.799 45.6C353.919 43.52 355.471 41.92 357.455 40.8C359.471 39.68 361.775 39.12 364.367 39.12C366.863 39.12 369.087 39.664 371.039 40.752C372.991 41.84 374.511 43.376 375.599 45.36C376.687 47.312 377.231 49.568 377.231 52.128ZM371.519 50.4C371.487 48.384 370.767 46.768 369.359 45.552C367.951 44.336 366.207 43.728 364.127 43.728C362.239 43.728 360.623 44.336 359.279 45.552C357.935 46.736 357.135 48.352 356.879 50.4H371.519ZM380.792 52.752C380.792 50.032 381.336 47.648 382.424 45.6C383.544 43.52 385.08 41.92 387.032 40.8C388.984 39.68 391.224 39.12 393.752 39.12C396.952 39.12 399.592 39.888 401.672 41.424C403.784 42.928 405.208 45.088 405.944 47.904H400.04C399.56 46.592 398.792 45.568 397.736 44.832C396.68 44.096 395.352 43.728 393.752 43.728C391.512 43.728 389.72 44.528 388.376 46.128C387.064 47.696 386.408 49.904 386.408 52.752C386.408 55.6 387.064 57.824 388.376 59.424C389.72 61.024 391.512 61.824 393.752 61.824C396.92 61.824 399.016 60.432 400.04 57.648H405.944C405.176 60.336 403.736 62.48 401.624 64.08C399.512 65.648 396.888 66.432 393.752 66.432C391.224 66.432 388.984 65.872 387.032 64.752C385.08 63.6 383.544 62 382.424 59.952C381.336 57.872 380.792 55.472 380.792 52.752ZM417.781 44.016V58.656C417.781 59.648 418.005 60.368 418.453 60.816C418.933 61.232 419.733 61.44 420.853 61.44H424.213V66H419.893C417.429 66 415.541 65.424 414.229 64.272C412.917 63.12 412.261 61.248 412.261 58.656V44.016H409.141V39.552H412.261V32.976H417.781V39.552H424.213V44.016H417.781Z" fill="white"/>
</svg>
